# xmcd
#
# Track frame offsets:
#	150
#	16729
#	29698
#	46397
#	59077
#	71404
#	80407
#	96520
#	108824
#	122211
#	131978
#	142711
#	159475
#	175969
#	196454
#
# Disc length: 2848 seconds
#
# Revision: 0
# Processed by: cddbd v1.5.1PL0 Copyright (c) Steve Scherf et al.
# Submitted via: dBpowerAMP V4.0
#
DISCID=d40b1e0f
DTITLE=Various Artist - Daily Express - Soul Sensations - Vol 2
DYEAR=2005
DGENRE=Soul
TTITLE0=Ike and Tina Turner - I've Been Loving You Too Long
TTITLE1=Ben E King - Spanish Harlem
TTITLE2=Brook Benton - Rainy Night In Georgia
TTITLE3=Bob and Earl - Harlem Shuffle
TTITLE4=James Brown - It's A Man's, Man's, Man's World
TTITLE5=Gladys Knight - Every Beat Of My Heart
TTITLE6=Sarah Vaughn - 'Round Midnight
TTITLE7=Filefinder - Do It Yourself
TTITLE8=Filefinder - Only Way Out
TTITLE9=Filefinder - Give Me Your Medicine
TTITLE10=Filefinder - Ain't Comming Back
TTITLE11=Soul Finder - Heart Full Of Love
TTITLE12=Soul Finder - Where Is The Love
TTITLE13=Soul Finder - Looking For Love
TTITLE14=Soul Finder - The Look Of Love
EXTD=
EXTT0=
EXTT1=
EXTT2=
EXTT3=
EXTT4=
EXTT5=
EXTT6=
EXTT7=
EXTT8=
EXTT9=
EXTT10=
EXTT11=
EXTT12=
EXTT13=
EXTT14=
PLAYORDER=
